<svg xmlns="http://www.w3.org/2000/svg" viewBox="0 0 219.927 151.2"><defs><style>.a{opacity:0.56;}.b{fill:#5d647f;}.c{fill:#5c546a;}.d{fill:#b8bac0;}.e{fill:#6c748d;}.f{fill:#ff4f19;}.g{fill:#ffd100;}.h{fill:#8a8895;}.i{fill:#ff9500;}</style></defs><g class="a" transform="translate(-1040 -219)"><g transform="translate(1040 219)"><path class="b" d="M13.745,172.782H116.836a13.746,13.746,0,0,0,13.745-13.745V93.745A13.745,13.745,0,0,0,116.836,80H13.745A13.746,13.746,0,0,0,0,93.745v65.291A13.746,13.746,0,0,0,13.745,172.782Z" transform="translate(0 -80)"/><g transform="translate(68.727 72.164)"><path class="c" d="M163.436,254.873h41.236a3.436,3.436,0,0,0,0-6.873H163.436a3.436,3.436,0,1,0,0,6.873Z" transform="translate(-160 -248)"/></g><g transform="translate(68.727 58.418)"><path class="c" d="M163.436,222.873h13.745a3.436,3.436,0,1,0,0-6.873H163.436a3.436,3.436,0,1,0,0,6.873Z" transform="translate(-160 -216)"/></g><g transform="translate(41.236 58.418)"><path class="c" d="M99.436,222.873h13.745a3.436,3.436,0,1,0,0-6.873H99.436a3.436,3.436,0,1,0,0,6.873Z" transform="translate(-96 -216)"/></g><g transform="translate(41.236 72.164)"><path class="c" d="M99.436,254.873h13.745a3.436,3.436,0,1,0,0-6.873H99.436a3.436,3.436,0,1,0,0,6.873Z" transform="translate(-96 -248)"/></g><g transform="translate(13.745 58.418)"><path class="c" d="M35.436,222.873H49.182a3.436,3.436,0,1,0,0-6.873H35.436a3.436,3.436,0,1,0,0,6.873Z" transform="translate(-32 -216)"/></g><g transform="translate(13.745 41.236)"><path class="d" d="M131.655,182.873H35.436a3.436,3.436,0,1,1,0-6.873h96.218a3.436,3.436,0,1,1,0,6.873Z" transform="translate(-32 -176)"/></g><g transform="translate(0 13.745)"><rect class="c" width="130.582" height="17.182"/></g><g transform="translate(89.345 58.418)"><path class="e" d="M324.836,308.782H221.745A13.745,13.745,0,0,1,208,295.036V229.745A13.745,13.745,0,0,1,221.745,216H324.836a13.745,13.745,0,0,1,13.745,13.745v65.291A13.745,13.745,0,0,1,324.836,308.782Z" transform="translate(-208 -216)"/></g><g transform="translate(158.073 72.164)"><path class="f" d="M392.055,270.837a13.746,13.746,0,1,1,0-18.18" transform="translate(-368 -248)"/></g><g transform="translate(103.091 72.164)"><path class="g" d="M267.491,275.491H246.873A6.872,6.872,0,0,1,240,268.618V254.873A6.872,6.872,0,0,1,246.873,248h20.618a6.872,6.872,0,0,1,6.873,6.873v13.745A6.873,6.873,0,0,1,267.491,275.491Z" transform="translate(-240 -248)"/></g><g transform="translate(103.091 116.836)"><path class="d" d="M257.182,358.873H243.436a3.436,3.436,0,1,1,0-6.873h13.745a3.436,3.436,0,1,1,0,6.873Z" transform="translate(-240 -352)"/></g><g transform="translate(103.091 130.582)"><path class="h" d="M284.673,390.873H243.436a3.436,3.436,0,1,1,0-6.873h41.236a3.436,3.436,0,1,1,0,6.873Z" transform="translate(-240 -384)"/></g><g transform="translate(130.582 116.836)"><path class="d" d="M321.182,358.873H307.436a3.436,3.436,0,1,1,0-6.873h13.745a3.436,3.436,0,1,1,0,6.873Z" transform="translate(-304 -352)"/></g><g transform="translate(158.073 116.836)"><path class="d" d="M385.182,358.873H371.436a3.436,3.436,0,0,1,0-6.873h13.745a3.436,3.436,0,1,1,0,6.873Z" transform="translate(-368 -352)"/></g><g transform="translate(158.073 130.582)"><path class="h" d="M385.182,390.873H371.436a3.436,3.436,0,0,1,0-6.873h13.745a3.436,3.436,0,1,1,0,6.873Z" transform="translate(-368 -384)"/></g><g transform="translate(185.564 116.836)"><path class="d" d="M449.182,358.873H435.436a3.436,3.436,0,1,1,0-6.873h13.745a3.436,3.436,0,1,1,0,6.873Z" transform="translate(-432 -352)"/></g><g transform="translate(178.691 72.164)"><ellipse class="g" cx="13.745" cy="13.745" rx="13.745" ry="13.745"/></g><g transform="translate(113.4 72.164)"><path class="i" d="M270.873,258.309V248H264v27.491h6.873V265.182h17.182v-6.873Z" transform="translate(-264 -248)"/></g></g></g></svg>