<svg xmlns="http://www.w3.org/2000/svg" viewBox="0 0 269.325 151.2"><defs><style>.a{opacity:0.56;}.b{fill:#d1cbcb;}</style></defs><g class="a" transform="translate(0 -107.5)"><g transform="translate(0 107.5)"><path class="b" d="M202.406,183.1a12.856,12.856,0,1,1-12.856-12.856A12.873,12.873,0,0,1,202.406,183.1Zm-160.6,0a12.856,12.856,0,1,0,12.856-12.856A12.873,12.873,0,0,0,41.811,183.1ZM21.153,258.7H168.4V240.624H42.91a22.993,22.993,0,0,0,.385-3.956,21.455,21.455,0,0,0-21.427-21.427,21,21,0,0,0-3.736.33v-65a21,21,0,0,0,3.736.33,21.455,21.455,0,0,0,21.427-21.427,18.942,18.942,0,0,0-.385-3.956H200.1a20.281,20.281,0,0,0-.659,5.219,21.455,21.455,0,0,0,21.427,21.427,20.708,20.708,0,0,0,5.274-.659v43.9h18.076V128.653A21.2,21.2,0,0,0,223.064,107.5H21.153A21.2,21.2,0,0,0,0,128.653V237.547A21.2,21.2,0,0,0,21.153,258.7Zm155.54-15.164A2.7,2.7,0,0,0,174,246.228v9.78a2.7,2.7,0,0,0,2.692,2.692h64.831a2.7,2.7,0,0,0,2.692-2.692v-9.78a2.7,2.7,0,0,0-2.692-2.692Zm80.105-8.791v-9.78a2.7,2.7,0,0,0-2.692-2.692H189.275a2.7,2.7,0,0,0-2.692,2.692v9.78a2.7,2.7,0,0,0,2.692,2.692h64.831A2.7,2.7,0,0,0,256.8,234.745Zm9.835-33.734H201.8a2.7,2.7,0,0,0-2.692,2.692v9.78a2.7,2.7,0,0,0,2.692,2.692h64.831a2.7,2.7,0,0,0,2.692-2.692V203.7A2.7,2.7,0,0,0,266.633,201.011Zm-144.5-64.282A46.371,46.371,0,1,1,75.765,183.1,46.38,46.38,0,0,1,122.136,136.729Zm4.066,11.922h-5.274a1.419,1.419,0,0,0-1.428,1.428V156.4a17.219,17.219,0,0,0-9.78,4.45,13.375,13.375,0,0,0-4.121,10.109c0,4.505,1.319,7.967,3.9,10.274s6.758,4.615,12.417,6.923a13.617,13.617,0,0,1,4.89,3.077,6.446,6.446,0,0,1,1.374,4.45,5.98,5.98,0,0,1-1.319,4.011,5.045,5.045,0,0,1-3.956,1.538,6.7,6.7,0,0,1-5.055-1.978,7.845,7.845,0,0,1-1.868-4.945,1.6,1.6,0,0,0-1.7-1.483l-8.681.165a1.76,1.76,0,0,0-1.7,1.758c.22,4.615,1.7,8.131,4.45,10.659a19.371,19.371,0,0,0,11.153,4.835v5.934a1.419,1.419,0,0,0,1.428,1.428H126.2a1.419,1.419,0,0,0,1.428-1.428v-6.154a16.774,16.774,0,0,0,8.736-4.231,13.532,13.532,0,0,0,3.956-10.164q0-6.593-3.956-10.219c-2.637-2.363-6.758-4.78-12.362-7.142a13.652,13.652,0,0,1-4.945-3.132,6.131,6.131,0,0,1-1.319-4.066A6.5,6.5,0,0,1,118.949,167a4.549,4.549,0,0,1,3.791-1.593,5,5,0,0,1,4.066,1.923,8.012,8.012,0,0,1,1.483,4.4,1.675,1.675,0,0,0,1.7,1.483l8.681-.11a1.723,1.723,0,0,0,1.7-1.758,15.429,15.429,0,0,0-3.681-9.56,15.673,15.673,0,0,0-9.12-5.165V150.08A1.342,1.342,0,0,0,126.2,148.651Z" transform="translate(0 -107.5)"/></g></g></svg>