<svg xmlns="http://www.w3.org/2000/svg" width="104" height="91" viewBox="0 0 104 91"><path d="M94.25,2.25h-26A9.753,9.753,0,0,0,58.5,12V38a9.753,9.753,0,0,0,9.75,9.75H84.5v13a13.012,13.012,0,0,1-13,13H69.875A4.863,4.863,0,0,0,65,78.625v9.75a4.863,4.863,0,0,0,4.875,4.875H71.5A32.491,32.491,0,0,0,104,60.75V12A9.753,9.753,0,0,0,94.25,2.25Zm-58.5,0h-26A9.753,9.753,0,0,0,0,12V38a9.753,9.753,0,0,0,9.75,9.75H26v13a13.012,13.012,0,0,1-13,13H11.375A4.863,4.863,0,0,0,6.5,78.625v9.75a4.863,4.863,0,0,0,4.875,4.875H13a32.491,32.491,0,0,0,32.5-32.5V12A9.753,9.753,0,0,0,35.75,2.25Z" transform="translate(0 -2.25)" fill="#fff" opacity="0.5"/></svg>