<svg id="Layer_1" data-name="Layer 1" fill="#0075cc" xmlns="http://www.w3.org/2000/svg" viewBox="0 0 304 304"><defs><style>.cls-1{fill:#797979;}</style></defs><title>wall-clock</title><path class="cls-1" d="M303.09,220.16c-83.81,0-152,68.19-152,152s68.19,152,152,152,152-68.19,152-152-68.19-152-152-152h0ZM367,473.68l-6.55-11.27a4.26,4.26,0,0,0-3.67-2.1,4.14,4.14,0,0,0-2.12.57,4.23,4.23,0,0,0-1.54,5.79l6.56,11.28a119.13,119.13,0,0,1-48.61,13.94V476a8,8,0,1,0-16,0v15.91a119.09,119.09,0,0,1-48-13.6L253.63,467a4.23,4.23,0,0,0-3.67-6.34,4.26,4.26,0,0,0-3.68,2.13l-6.48,11.31a120.89,120.89,0,0,1-36.35-35.13L217.19,431a8,8,0,0,0-8-13.86l-13.77,8a119.07,119.07,0,0,1-12.23-48.33l13.06,0a4.24,4.24,0,0,0,4.22-4.25,4.24,4.24,0,0,0-4.23-4.22l-13.08,0a119.15,119.15,0,0,1,12.26-49.06l13.77,7.95a8,8,0,0,0,8-13.85l-13.75-7.94a120.93,120.93,0,0,1,35.74-34.74l6.55,11.27a4.16,4.16,0,0,0,1.55,1.54,4.26,4.26,0,0,0,4.24,0,4.23,4.23,0,0,0,1.54-5.79l-6.56-11.28a119.12,119.12,0,0,1,48.61-13.94v15.91a8,8,0,1,0,16,0V252.44a119.08,119.08,0,0,1,48,13.6l-6.49,11.32a4.25,4.25,0,0,0,1.57,5.78,4.19,4.19,0,0,0,2.1.56,4.24,4.24,0,0,0,3.68-2.13l6.49-11.31a120.94,120.94,0,0,1,36.36,35.13L389,313.33a8,8,0,0,0,8,13.85l13.77-7.95A119.07,119.07,0,0,1,423,367.57l-13.06,0a4.23,4.23,0,0,0-4.22,4.25,4.25,4.25,0,0,0,2.13,3.66,4.2,4.2,0,0,0,2.1.56h0L423,376a119.24,119.24,0,0,1-12.26,49.06l-13.77-8A8,8,0,0,0,389,431l13.75,7.94A120.94,120.94,0,0,1,367,473.68h0Zm0,0" transform="translate(-151.09 -220.16)"/><path class="cls-1" d="M362.22,328.79l-51.31,28.47a16.78,16.78,0,0,0-15.62,0L244,328.79a10,10,0,1,0-9.75,17.57l52.35,29.05a16.84,16.84,0,0,0,33,0L372,346.36a10,10,0,1,0-9.75-17.57h0Zm0,0" transform="translate(-151.09 -220.16)"/></svg>