<svg xmlns="http://www.w3.org/2000/svg" xmlns:xlink="http://www.w3.org/1999/xlink" width="147.868" height="147.362" viewBox="0 0 147.868 147.362"><defs><linearGradient id="a" x1="-1.828" y1="1.143" x2="-1.828" y2="1.47" gradientUnits="objectBoundingBox"><stop offset="0" stop-color="#f26522"/><stop offset="0.608" stop-color="#f69220"/><stop offset="1" stop-color="#f26522"/></linearGradient><linearGradient id="b" x1="0.5" y1="0.007" x2="0.5" y2="0.907" gradientUnits="objectBoundingBox"><stop offset="0" stop-color="#003770"/><stop offset="0.511" stop-color="#0076ce"/><stop offset="1" stop-color="#003770"/></linearGradient><linearGradient id="c" x1="0.503" y1="-0.244" x2="0.503" y2="1.032" xlink:href="#a"/><linearGradient id="d" x1="0.499" y1="-0.336" x2="0.499" y2="1.441" xlink:href="#a"/><linearGradient id="e" x1="0.498" y1="0.055" x2="0.498" y2="1.334" xlink:href="#a"/><linearGradient id="f" x1="0.501" y1="-0.347" x2="0.501" y2="1.472" xlink:href="#a"/><linearGradient id="g" x1="0.506" y1="-0.085" x2="0.506" y2="1.362" xlink:href="#a"/><linearGradient id="h" x1="0.5" y1="-0.336" x2="0.5" y2="1.441" xlink:href="#a"/><linearGradient id="i" x1="0.499" y1="0.103" x2="0.499" y2="1.314" xlink:href="#a"/><linearGradient id="j" x1="0.504" y1="-0.327" x2="0.504" y2="1.456" xlink:href="#a"/><linearGradient id="k" x1="0.499" y1="-0.336" x2="0.499" y2="1.441" xlink:href="#a"/><linearGradient id="l" x1="0.497" y1="0.09" x2="0.497" y2="1.316" xlink:href="#a"/><linearGradient id="m" x1="0.506" y1="-0.34" x2="0.506" y2="1.442" xlink:href="#a"/><linearGradient id="n" x1="0.499" y1="-0.001" x2="0.499" y2="1" xlink:href="#b"/><linearGradient id="o" x1="0.5" y1="0" x2="0.5" y2="1" xlink:href="#b"/><linearGradient id="p" x1="0.5" y1="-0.001" x2="0.5" y2="1" xlink:href="#b"/></defs><g transform="translate(-861 -254)"><path d="M56.665,167.425l-.039-.155A4.233,4.233,0,0,1,53.789,164L29.962,40.05A4.348,4.348,0,0,1,31.4,35.969l-.039-.155a11.33,11.33,0,0,1,.933-7.113,10.715,10.715,0,0,0-8.512,12.555L47.647,165.21A10.72,10.72,0,0,0,60.2,173.683,11.321,11.321,0,0,1,56.665,167.425Z" transform="translate(837.421 227.483)" fill="url(#a)"/><path d="M139.069,118.709h-4.392l.272,1.4a4.42,4.42,0,0,1-2.1,4.587L86.6,156.257a5.319,5.319,0,0,1-1.477.583,4.459,4.459,0,0,1-5.209-3.459L57.055,34.6a4.4,4.4,0,0,1,3.576-5.131,4.267,4.267,0,0,1,1.011-.078l53.173,4.392a4.37,4.37,0,0,1,4.237,3.537l2.643,13.8h4.392l-2.8-14.615a10.693,10.693,0,0,0-10.145-8.668l-51.5-4.742A10.705,10.705,0,0,0,50.8,35.8L74.663,159.755a10.7,10.7,0,0,0,16.053,7.113l44.272-32.534a10.684,10.684,0,0,0,4.936-11.156Zm-24.449,28.919c-1.4.661-2.954-.35-3.459-2.254s.194-3.926,1.594-4.587,2.954.35,3.459,2.254C116.758,144.907,116.02,146.967,114.621,147.628Z" transform="translate(820.901 230.916)" fill="url(#b)"/><g transform="translate(900.033 278.455)"><g transform="translate(0 48.082)"><path d="M124.039,239.109l1.71-.428v-12.4l-1.71-.428v-1.322h3.421l.466,1.749a2.3,2.3,0,0,1,1.049-1.477,3.768,3.768,0,0,1,2.06-.505,3.5,3.5,0,0,1,1.866.466,3.368,3.368,0,0,1,1.2,1.244,5.069,5.069,0,0,1,.622,1.827,13.909,13.909,0,0,1,.194,2.254,13.532,13.532,0,0,1-.194,2.254,5.94,5.94,0,0,1-.622,1.827,3.689,3.689,0,0,1-1.2,1.244,3.545,3.545,0,0,1-1.9.466,3.463,3.463,0,0,1-2.021-.505,2.794,2.794,0,0,1-1.088-1.322v4.664l2.41.35v1.36H124v-1.322Zm6.452-13.293a2.258,2.258,0,0,0-1.9.816,3.062,3.062,0,0,0-.622,1.943V231.3a3.354,3.354,0,0,0,.155,1.088,3.493,3.493,0,0,0,.466.933,1.984,1.984,0,0,0,.816.661,2.537,2.537,0,0,0,1.127.233,1.556,1.556,0,0,0,1.049-.35,2.386,2.386,0,0,0,.661-.933,5.94,5.94,0,0,0,.35-1.322,10.682,10.682,0,0,0,.078-1.594c0-.544-.039-1.088-.078-1.594a4.651,4.651,0,0,0-.35-1.36,2.386,2.386,0,0,0-.661-.933A1.989,1.989,0,0,0,130.491,225.816Z" transform="translate(-124 -218.625)" fill="url(#c)"/><path d="M160.442,235.783a5.42,5.42,0,0,1-2.254-.428,3.448,3.448,0,0,1-1.477-1.2,5.194,5.194,0,0,1-.777-1.827,11.778,11.778,0,0,1,0-4.664,5.194,5.194,0,0,1,.777-1.827,3.811,3.811,0,0,1,1.477-1.2,5.551,5.551,0,0,1,2.254-.428,5.42,5.42,0,0,1,2.254.428,3.448,3.448,0,0,1,1.477,1.2,5.194,5.194,0,0,1,.777,1.827,11.778,11.778,0,0,1,0,4.664,5.194,5.194,0,0,1-.777,1.827,3.81,3.81,0,0,1-1.477,1.2A5.551,5.551,0,0,1,160.442,235.783Zm0-1.36a1.835,1.835,0,0,0,1.244-.389,2.153,2.153,0,0,0,.7-1.011,5.222,5.222,0,0,0,.311-1.438c.039-.544.078-1.088.078-1.633s-.039-1.088-.078-1.633a5.22,5.22,0,0,0-.311-1.438,2.153,2.153,0,0,0-.7-1.011,2.062,2.062,0,0,0-1.244-.389,1.708,1.708,0,0,0-1.244.389,2.367,2.367,0,0,0-.7,1.011,5.222,5.222,0,0,0-.311,1.438c-.039.544-.078,1.088-.078,1.633,0,.583.039,1.127.078,1.633a5.222,5.222,0,0,0,.311,1.438,2.153,2.153,0,0,0,.7,1.011A1.708,1.708,0,0,0,160.442,234.423Z" transform="translate(-143.378 -218.564)" fill="url(#d)"/><path d="M182.739,226.709l1.671-.428v-7.735l-1.71-.428v-1.2h3.887v9.329l1.71.428v1.322h-5.558Zm2.682-12.011a1.4,1.4,0,0,1-1.477-1.4,1.348,1.348,0,0,1,.428-1.011,1.611,1.611,0,0,1,2.1,0,1.408,1.408,0,0,1,0,2.021A1.407,1.407,0,0,1,185.421,214.7Z" transform="translate(-159.884 -211.045)" fill="url(#e)"/><path d="M206.69,228.77a10.27,10.27,0,0,0-.078-1.127,3.278,3.278,0,0,0-.272-.933,2.012,2.012,0,0,0-.622-.661,2.156,2.156,0,0,0-1.088-.233,2.348,2.348,0,0,0-1.166.272,2.94,2.94,0,0,0-.816.738,2.651,2.651,0,0,0-.466,1.011,3.68,3.68,0,0,0-.155,1.088v4.859l1.71.428v1.322h-5.6v-1.244l1.71-.428v-7.58l-1.749-.428v-1.322h3.459l.466,1.788a2.349,2.349,0,0,1,1.127-1.516,4.2,4.2,0,0,1,2.177-.505,3.7,3.7,0,0,1,1.866.389,3.132,3.132,0,0,1,1.088,1.049,4.426,4.426,0,0,1,.505,1.477,11.531,11.531,0,0,1,.117,1.633v5.014l1.71.428v1.322H206.69Z" transform="translate(-169.298 -218.625)" fill="url(#f)"/><path d="M230.039,220.643l1.71-.428.466-2.915h1.71v2.915h2.138v1.633h-2.138v6.064a3.409,3.409,0,0,0,.233,1.477.835.835,0,0,0,.816.466,5.808,5.808,0,0,0,.661-.078,4.1,4.1,0,0,0,.738-.194l.466,1.244a2.449,2.449,0,0,1-1.011.505,5.227,5.227,0,0,1-1.36.194,2.439,2.439,0,0,1-2.1-.894,4.78,4.78,0,0,1-.661-2.8V221.77H230v-1.127Z" transform="translate(-188.798 -214.346)" fill="url(#g)"/><path d="M263.942,235.783a5.42,5.42,0,0,1-2.254-.428,3.448,3.448,0,0,1-1.477-1.2,5.194,5.194,0,0,1-.777-1.827,11.776,11.776,0,0,1,0-4.664,5.2,5.2,0,0,1,.777-1.827,3.811,3.811,0,0,1,1.477-1.2,5.551,5.551,0,0,1,2.254-.428,5.42,5.42,0,0,1,2.254.428,3.448,3.448,0,0,1,1.477,1.2,5.194,5.194,0,0,1,.777,1.827,11.778,11.778,0,0,1,0,4.664,5.193,5.193,0,0,1-.777,1.827,3.81,3.81,0,0,1-1.477,1.2A5.42,5.42,0,0,1,263.942,235.783Zm0-1.36a1.835,1.835,0,0,0,1.244-.389,2.153,2.153,0,0,0,.7-1.011,5.223,5.223,0,0,0,.311-1.438c.039-.544.078-1.088.078-1.633s-.039-1.088-.078-1.633a5.223,5.223,0,0,0-.311-1.438,2.153,2.153,0,0,0-.7-1.011,2.062,2.062,0,0,0-1.244-.389,1.708,1.708,0,0,0-1.244.389,2.368,2.368,0,0,0-.7,1.011,5.223,5.223,0,0,0-.311,1.438c-.039.544-.078,1.088-.078,1.633,0,.583.039,1.127.078,1.633a5.223,5.223,0,0,0,.311,1.438,2.153,2.153,0,0,0,.7,1.011A1.77,1.77,0,0,0,263.942,234.423Z" transform="translate(-206.648 -218.564)" fill="url(#h)"/><path d="M286.4,215.569h1.71v-1.2a10.257,10.257,0,0,1,.155-1.982,4.2,4.2,0,0,1,.583-1.477,2.468,2.468,0,0,1,1.088-.894,4.074,4.074,0,0,1,1.633-.311,5.835,5.835,0,0,1,1.438.194,4.552,4.552,0,0,1,1.322.622l-.544,1.2a5.325,5.325,0,0,0-.933-.272,4.108,4.108,0,0,0-.933-.078,2.1,2.1,0,0,0-.739.117.973.973,0,0,0-.505.466,2.694,2.694,0,0,0-.272.894,8.242,8.242,0,0,0-.078,1.477v1.2H292.7v1.633h-2.371V224.9l2.371.311v1.477h-6.258v-1.322l1.71-.428V217.2h-1.71v-1.633Z" transform="translate(-223.276 -209.7)" fill="url(#i)"/><path d="M317.349,233.967l-.466,1.4H315.6v-3.459h1.982a1.956,1.956,0,0,0,2.06,2.216,2.374,2.374,0,0,0,1.166-.311,1.148,1.148,0,0,0,.544-1.049,1.183,1.183,0,0,0-.428-.933,4.986,4.986,0,0,0-1.011-.622c-.389-.194-.855-.35-1.322-.544a6.168,6.168,0,0,1-1.322-.7,3.879,3.879,0,0,1-1.011-1.088,3.18,3.18,0,0,1-.428-1.71,3.345,3.345,0,0,1,.272-1.477,3.235,3.235,0,0,1,.738-1.011,2.972,2.972,0,0,1,1.011-.583,3.816,3.816,0,0,1,1.127-.194,4.3,4.3,0,0,1,.738.078,3.362,3.362,0,0,1,.661.272,1.569,1.569,0,0,1,.505.505,1.539,1.539,0,0,1,.272.739h.078l.466-1.4h1.283v3.459h-1.943a2.361,2.361,0,0,0-.544-1.633,1.709,1.709,0,0,0-1.36-.583,1.453,1.453,0,0,0-1.011.35,1.313,1.313,0,0,0-.389.972,1.207,1.207,0,0,0,.428.972,3.707,3.707,0,0,0,1.011.622c.389.194.855.35,1.322.544a7,7,0,0,1,1.322.661,3.725,3.725,0,0,1,1.011,1.049,3.038,3.038,0,0,1,.428,1.671,3.449,3.449,0,0,1-.311,1.477,2.927,2.927,0,0,1-.777,1.011,2.68,2.68,0,0,1-1.088.583,4.38,4.38,0,0,1-1.244.194,6.982,6.982,0,0,1-.855-.078,4.574,4.574,0,0,1-.777-.272,1.83,1.83,0,0,1-.583-.505,1.867,1.867,0,0,1-.35-.738h.078Z" transform="translate(-241.126 -218.381)" fill="url(#j)"/><path d="M341.776,235.783a4.462,4.462,0,0,1-1.2-.155,3.134,3.134,0,0,1-1.166-.505,2.759,2.759,0,0,1-.855-1.011,3.386,3.386,0,0,1-.35-1.633,3.785,3.785,0,0,1,.233-1.322,2.356,2.356,0,0,1,.738-1.011,3.828,3.828,0,0,1,1.322-.661,8.855,8.855,0,0,1,2.021-.311l2.371-.117v-1.011a3.174,3.174,0,0,0-.389-1.633,1.518,1.518,0,0,0-1.477-.661,2.6,2.6,0,0,0-1.011.194,1.519,1.519,0,0,0-.661.544,1.936,1.936,0,0,0-.389.739,2.958,2.958,0,0,0-.117.816H338.9v-3.615h1.477l.466,1.4h.078a2.576,2.576,0,0,1,1.244-1.244,4.367,4.367,0,0,1,1.827-.389,3.441,3.441,0,0,1,2.293.7,2.89,2.89,0,0,1,.816,2.293v6.569l1.71.428v1.322h-3.421l-.466-1.594a2.2,2.2,0,0,1-.544.933,2.315,2.315,0,0,1-.816.544,3.413,3.413,0,0,1-.894.272A4.033,4.033,0,0,1,341.776,235.783Zm.622-1.555a2.161,2.161,0,0,0,1.166-.272,2.709,2.709,0,0,0,.777-.7,3.682,3.682,0,0,0,.428-.972,5.179,5.179,0,0,0,.117-1.088v-.933l-2.021.117a4.4,4.4,0,0,0-1.2.233,2.006,2.006,0,0,0-.739.466,1.521,1.521,0,0,0-.389.622,2.262,2.262,0,0,0-.117.739,1.905,1.905,0,0,0,.194.894,1.721,1.721,0,0,0,.466.583,1.278,1.278,0,0,0,.622.272C341.931,234.189,342.165,234.228,342.4,234.228Z" transform="translate(-254.941 -218.564)" fill="url(#k)"/><path d="M365.039,225.731l1.671-.428V212.049l-1.71-.428V210.3h3.887v15.043l1.71.428v1.322h-5.558Z" transform="translate(-271.324 -210.067)" fill="url(#l)"/><path d="M385.781,235.844a5.653,5.653,0,0,1-2.293-.389,3.664,3.664,0,0,1-1.477-1.166,5.2,5.2,0,0,1-.777-1.827,12.566,12.566,0,0,1,0-4.82,4.9,4.9,0,0,1,.777-1.827,3.283,3.283,0,0,1,1.477-1.127,5.778,5.778,0,0,1,2.293-.389,5.5,5.5,0,0,1,1.943.311,2.715,2.715,0,0,1,1.244.933,4.61,4.61,0,0,1,.7,1.594,10.092,10.092,0,0,1,.194,2.293v.544a2.941,2.941,0,0,1-.039.583h-6.452c0,.544.039,1.049.078,1.555a3.893,3.893,0,0,0,.311,1.244,2.132,2.132,0,0,0,.7.855,2.354,2.354,0,0,0,1.244.311,2.524,2.524,0,0,0,1.049-.194,1.706,1.706,0,0,0,.622-.544,1.746,1.746,0,0,0,.272-.7,4.761,4.761,0,0,0,.078-.739h2.1a7.543,7.543,0,0,1-.272,1.283,3.067,3.067,0,0,1-.7,1.127,3.645,3.645,0,0,1-1.244.816A5.313,5.313,0,0,1,385.781,235.844Zm-.078-10.262a1.939,1.939,0,0,0-1.127.272,2.141,2.141,0,0,0-.661.777,3.2,3.2,0,0,0-.311,1.127q-.058.641-.117,1.4h4.353a5.494,5.494,0,0,0-.505-2.8A1.861,1.861,0,0,0,385.7,225.583Z" transform="translate(-281.105 -218.625)" fill="url(#m)"/></g><g transform="translate(0.039)"><path d="M135.605,131.944a18.235,18.235,0,0,1-5.4-.7,8.682,8.682,0,0,1-3.576-2.06,7.593,7.593,0,0,1-1.943-3.459,18.09,18.09,0,0,1-.583-4.859c0-.389,0-.777.039-1.166s.039-.816.078-1.244h5.247c0,3.148.505,5.442,1.477,6.88a5.021,5.021,0,0,0,4.47,2.177c2.293,0,3.848-.816,4.625-2.41a15.224,15.224,0,0,0,1.2-6.8V91.014l-9.018-1.244V86h15.159v32.145c0,4.859-.933,8.4-2.8,10.572C142.719,130.855,139.726,131.944,135.605,131.944Z" transform="translate(-124.1 -86)" fill="url(#n)"/><path d="M210.944,152.728a15.206,15.206,0,0,1-6.219-1.127,9.742,9.742,0,0,1-4-3.265,13.171,13.171,0,0,1-2.1-5.17,32.967,32.967,0,0,1-.622-6.8,33.621,33.621,0,0,1,.622-6.841,13.551,13.551,0,0,1,2.138-5.17,9.773,9.773,0,0,1,4.042-3.226A15.532,15.532,0,0,1,211.06,120a13.891,13.891,0,0,1,5.286.894,7.786,7.786,0,0,1,3.421,2.682,12.147,12.147,0,0,1,1.866,4.548,31.478,31.478,0,0,1,.544,6.452v1.555c0,.544-.039,1.088-.078,1.671H204.53c0,1.555.078,3.032.194,4.392a10.738,10.738,0,0,0,.855,3.576,5.563,5.563,0,0,0,1.9,2.41,5.86,5.86,0,0,0,3.421.894,6.266,6.266,0,0,0,2.915-.583,3.875,3.875,0,0,0,1.633-1.516,5.34,5.34,0,0,0,.739-1.982,19.672,19.672,0,0,0,.233-2.06H222.1a17.18,17.18,0,0,1-.777,3.615,8.992,8.992,0,0,1-1.866,3.226,8.751,8.751,0,0,1-3.343,2.254A17.1,17.1,0,0,1,210.944,152.728Zm-.272-28.958a5.352,5.352,0,0,0-3.11.816,5.41,5.41,0,0,0-1.827,2.216,10.08,10.08,0,0,0-.855,3.226c-.155,1.244-.233,2.565-.272,3.926h11.816c0-3.77-.428-6.413-1.322-7.929A4.805,4.805,0,0,0,210.671,123.77Z" transform="translate(-169.275 -106.784)" fill="url(#o)"/><path d="M279.272,90.7v35.6l4.548,1.244v3.77H267.3v-3.77l5.792-1.244V91.014L267.3,89.77V86h16.52l10.028,39.8L303.954,86h16.481v3.77l-5.792,1.244v35.294l5.792,1.244v3.77h-16.52v-3.77l4.548-1.244V90.7l-10.145,40.619h-8.979Z" transform="translate(-211.639 -86)" fill="url(#p)"/></g></g></g></svg>