<svg xmlns="http://www.w3.org/2000/svg" viewBox="0 0 1199.226 695.914"><defs><style>.a{opacity:0.3;}.b{fill:#ff90bd;}.b,.c,.d{fill-rule:evenodd;}.c{fill:#ffe037;}.d{fill:#3b77e7;}</style></defs><g class="a" transform="translate(-0.002 -0.446)"><path class="b" d="M108.374,687.328C100.485,698.3,57.423,676.337,54.4,644.8a68.515,68.515,0,0,1,3.028-26.954c5.841-18.209,27-34.441,39.741-21.482C113.165,612.631,122.614,667.523,108.374,687.328Z" transform="matrix(0.656, -0.755, 0.755, 0.656, -454.578, 284.397)"/><path class="c" d="M188.621,201.245c30.417,18.275,55.433,81.4,32.039,98.759s-37.234-11.988-64.458-17.531c-15.7-3.2-41.525,9.683-64.121,3.73-17.223-4.538-39.526-24.3-36.824-51.541S120.1,160.076,188.621,201.245Z" transform="translate(36.883 508.52) rotate(-128)"/><path class="d" d="M100.146,269.2c29.724,5.89,36.6,48.2,31.257,86.737-2.778,20.021-15.831,35.845-31.257,46.946C70.6,424.137,37.4,411.4,36.367,379.474c-.76-23.489,26.784-23.6,28.9-48.121C67.258,308.258,70.422,263.3,100.146,269.2Z" transform="translate(255.325 33.843) rotate(43)"/><path class="b" d="M321.776,96.945c15.191,3.7,10.279,33.95,8.588,58.35S286.9,194,286.325,172.208a202.7,202.7,0,0,1,4.745-48.1C292.541,117.362,305.254,92.925,321.776,96.945Z" transform="translate(178.401 -173.456) rotate(43)"/><path class="c" d="M1167.88,84.27c-2.88,41.444-73.82,65.736-74.8,28.727-.72-27.228-5.41-83.411,13.16-94.823C1152.53-10.273,1170.75,42.826,1167.88,84.27Z" transform="translate(351.803 -751.736) rotate(43)"/></g></svg>